<svg xmlns="http://www.w3.org/2000/svg" width="182.268" height="138.747" viewBox="0 0 182.268 138.747">
  <g id="Group_53" data-name="Group 53" transform="translate(-132.983 -3732.452)">
    <path id="Path_1772" data-name="Path 1772" d="M212.028,3807.405a41.792,41.792,0,0,1,5.766,22.132q0,18.606-11.9,30.13t-30.5,11.532q-18.606,0-30.5-11.532t-11.9-30.13a67.569,67.569,0,0,1,2.232-17.11q2.232-8.553,10.043-25.295l23.807-54.68H213.33l-17.483,60.631A36.442,36.442,0,0,1,212.028,3807.405Zm97.458,0a41.792,41.792,0,0,1,5.765,22.132q0,18.606-11.9,30.13t-30.5,11.532q-18.6,0-30.5-11.532t-11.9-30.13a67.568,67.568,0,0,1,2.232-17.11q2.232-8.553,10.043-25.295l23.807-54.68h44.266L293.3,3793.083A36.447,36.447,0,0,1,309.486,3807.405Z" fill="#21f4b5"/>
  </g>
</svg>
